{
    "asset" : {
        "generator" : "Khronos glTF Blender I/O v0.9.36",
        "version" : "2.0"
    },
    "extensionsUsed" : [
        "KHR_texture_transform"
    ],
    "extensionsRequired" : [
        "KHR_texture_transform"
    ],
    "scene" : 0,
    "scenes" : [
        {
            "name" : "Scene",
            "nodes" : [
                0,
                1,
                2,
                3
            ]
        }
    ],
    "nodes" : [
        {
            "name" : "Light",
            "rotation" : [
                0.16907575726509094,
                0.7558803558349609,
                -0.27217137813568115,
                0.570947527885437
            ],
            "translation" : [
                4.076245307922363,
                5.903861999511719,
                -1.0054539442062378
            ]
        },
        {
            "name" : "Camera",
            "rotation" : [
                0.483536034822464,
                0.33687159419059753,
                -0.20870360732078552,
                0.7804827094078064
            ],
            "translation" : [
                7.358891487121582,
                4.958309173583984,
                6.925790786743164
            ]
        },
        {
            "name" : "Cinema_4D_Editor",
            "rotation" : [
                0.014941921457648277,
                -0.22325049340724945,
                0.9746405482292175,
                0.0034225413110107183
            ],
            "scale" : [
                -0.009999999776482582,
                0.009999999776482582,
                0.009999998845160007
            ],
            "translation" : [
                0,
                7.350996971130371,
                3.2936129570007324
            ]
        },
        {
            "mesh" : 0,
            "name" : "Plano",
            "rotation" : [
                0.7071068286895752,
                0,
                0,
                0.7071067094802856
            ],
            "scale" : [
                -0.009999999776482582,
                0.009999999776482582,
                0.009999999776482582
            ],
            "translation" : [
                -0.24666503071784973,
                0.6119632720947266,
                0.19999992847442627
            ]
        }
    ],
    "materials" : [
        {
            "doubleSided" : true,
            "name" : "Mat",
            "pbrMetallicRoughness" : {
                "baseColorTexture" : {
                    "extensions" : {
                        "KHR_texture_transform" : {
                            "offset" : [
                                0,
                                -1
                            ]
                        }
                    },
                    "index" : 0,
                    "texCoord" : 0
                },
                "metallicFactor" : 0,
                "roughnessFactor" : 0.5527864098548889
            }
        }
    ],
    "meshes" : [
        {
            "name" : "Mesh",
            "primitives" : [
                {
                    "attributes" : {
                        "POSITION" : 0,
                        "NORMAL" : 1,
                        "TEXCOORD_0" : 2
                    },
                    "indices" : 3,
                    "material" : 0
                }
            ]
        }
    ],
    "textures" : [
        {
            "source" : 0
        }
    ],
    "images" : [
        {
            "bufferView" : 4,
            "mimeType" : "image/png",
            "name" : "Mapa2"
        }
    ],
    "accessors" : [
        {
            "bufferView" : 0,
            "componentType" : 5126,
            "count" : 441,
            "max" : [
                200,
                180,
                0
            ],
            "min" : [
                -200,
                -220,
                0
            ],
            "type" : "VEC3"
        },
        {
            "bufferView" : 1,
            "componentType" : 5126,
            "count" : 441,
            "type" : "VEC3"
        },
        {
            "bufferView" : 2,
            "componentType" : 5126,
            "count" : 441,
            "type" : "VEC2"
        },
        {
            "bufferView" : 3,
            "componentType" : 5123,
            "count" : 2400,
            "type" : "SCALAR"
        }
    ],
    "bufferViews" : [
        {
            "buffer" : 0,
            "byteLength" : 5292,
            "byteOffset" : 0
        },
        {
            "buffer" : 0,
            "byteLength" : 5292,
            "byteOffset" : 5292
        },
        {
            "buffer" : 0,
            "byteLength" : 3528,
            "byteOffset" : 10584
        },
        {
            "buffer" : 0,
            "byteLength" : 4800,
            "byteOffset" : 14112
        },
        {
            "buffer" : 0,
            "byteLength" : 1151125,
            "byteOffset" : 18912
        }
    ],
    "buffers" : [
        {
            "byteLength" : 1170040,
            "uri" : "data:application/octet-stream;base64,"
        }
    ]
}
